# Blender 5.1.1
# www.blender.org
o Bomb
v 0.000000 -0.000000 -0.264000
v -0.072966 -0.224569 -0.118065
v 0.191030 -0.138790 -0.118065
v 0.191030 -0.138790 -0.118065
v 0.191030 0.138790 -0.118065
v 0.000000 -0.000000 -0.264000
v 0.000000 -0.000000 -0.264000
v -0.236128 -0.000000 -0.118065
v -0.072966 -0.224569 -0.118065
v 0.000000 -0.000000 -0.264000
v -0.072966 0.224569 -0.118065
v -0.236128 -0.000000 -0.118065
v 0.000000 -0.000000 -0.264000
v 0.191030 0.138790 -0.118065
v -0.072966 0.224569 -0.118065
v 0.191030 0.138790 -0.118065
v 0.203056 0.027758 -0.055097
v 0.212076 -0.000000 -0.007871
v 0.236128 0.000000 0.118065
v 0.191030 -0.138790 -0.118065
v 0.089147 -0.184539 -0.055097
v 0.065535 -0.201695 -0.007871
v 0.072966 -0.224569 0.118065
v -0.072966 -0.224569 -0.118065
v -0.147960 -0.141810 -0.055097
v -0.171573 -0.124654 -0.007871
v -0.191030 -0.138790 0.118065
v -0.236128 -0.000000 -0.118065
v -0.180592 -0.096896 -0.055097
v -0.236128 -0.000000 -0.118065
v -0.180592 0.096896 -0.055097
v -0.171573 0.124654 -0.007871
v -0.191030 0.138790 0.118065
v -0.072966 0.224569 -0.118065
v 0.036348 0.201695 -0.055097
v 0.065535 0.201695 -0.007871
v 0.072966 0.224569 0.118065
v 0.072966 -0.224569 0.118065
v -0.036348 -0.201695 0.055097
v -0.089148 -0.184539 0.055097
v -0.191030 -0.138790 0.118065
v -0.191030 -0.138790 0.118065
v -0.203056 -0.027758 0.055097
v -0.203056 0.027758 0.055097
v -0.191030 0.138790 0.118065
v -0.212076 0.000000 0.007871
v -0.236128 -0.000000 -0.118065
v -0.191030 0.138790 0.118065
v -0.089148 0.184539 0.055097
v -0.036348 0.201695 0.055097
v 0.072966 0.224569 0.118065
v 0.072966 0.224569 0.118065
v 0.147960 0.141810 0.055097
v 0.180592 0.096896 0.055097
v 0.236128 0.000000 0.118065
v 0.191030 0.138790 -0.118065
v 0.171572 0.124654 0.007871
v 0.072966 -0.224569 0.118065
v 0.000000 0.000000 0.264000
v 0.236128 0.000000 0.118065
v -0.191030 -0.138790 0.118065
v 0.000000 0.000000 0.264000
v 0.072966 -0.224569 0.118065
v -0.191030 0.138790 0.118065
v 0.000000 0.000000 0.264000
v -0.191030 -0.138790 0.118065
v 0.072966 0.224569 0.118065
v 0.000000 0.000000 0.264000
v -0.191030 0.138790 0.118065
v 0.236128 0.000000 0.118065
v 0.000000 0.000000 0.264000
v 0.072966 0.224569 0.118065
v 0.036348 0.201695 -0.055097
v 0.096729 0.297697 -0.059781
v 0.065535 0.201695 -0.007871
v 0.072966 0.224569 0.118065
v 0.065535 0.201695 -0.007871
v 0.089147 0.184539 -0.055097
v 0.191030 0.138790 -0.118065
v 0.191030 0.138790 -0.118065
v 0.089147 0.184539 -0.055097
v 0.036348 0.201695 -0.055097
v -0.072966 0.224569 -0.118065
v 0.065535 0.201695 -0.007871
v 0.096729 0.297697 -0.059781
v 0.089147 0.184539 -0.055097
v 0.089147 0.184539 -0.055097
v 0.096729 0.297697 -0.059781
v 0.036348 0.201695 -0.055097
v -0.180592 0.096896 -0.055097
v -0.250257 0.181823 -0.059078
v -0.171573 0.124654 -0.007871
v -0.191030 0.138790 0.118065
v -0.171573 0.124654 -0.007871
v -0.147960 0.141810 -0.055097
v -0.072966 0.224569 -0.118065
v -0.180592 0.096896 -0.055097
v -0.236128 -0.000000 -0.118065
v -0.147960 -0.141810 -0.055097
v -0.273709 -0.198862 -0.064614
v -0.171573 -0.124654 -0.007871
v -0.191030 -0.138790 0.118065
v -0.171573 -0.124654 -0.007871
v -0.180592 -0.096896 -0.055097
v -0.236128 -0.000000 -0.118065
v 0.089147 -0.184539 -0.055097
v 0.093263 -0.287042 -0.057639
v 0.065535 -0.201695 -0.007871
v 0.072966 -0.224569 0.118065
v 0.065535 -0.201695 -0.007871
v 0.036348 -0.201695 -0.055097
v -0.072966 -0.224569 -0.118065
v -0.072966 -0.224569 -0.118065
v 0.036348 -0.201695 -0.055097
v 0.089147 -0.184539 -0.055097
v 0.191030 -0.138790 -0.118065
v 0.203056 0.027758 -0.055097
v 0.304023 -0.000000 -0.058064
v 0.212076 -0.000000 -0.007871
v 0.236128 0.000000 0.118065
v 0.212076 -0.000000 -0.007871
v 0.203056 -0.027758 -0.055097
v 0.191030 -0.138790 -0.118065
v 0.191030 -0.138790 -0.118065
v 0.203056 -0.027758 -0.055097
v 0.203056 0.027758 -0.055097
v 0.191030 0.138790 -0.118065
v 0.212076 -0.000000 -0.007871
v 0.304023 -0.000000 -0.058064
v 0.203056 -0.027758 -0.055097
v 0.203056 -0.027758 -0.055097
v 0.304023 -0.000000 -0.058064
v 0.203056 0.027758 -0.055097
v 0.065535 -0.201695 -0.007871
v 0.093263 -0.287042 -0.057639
v 0.036348 -0.201695 -0.055097
v 0.036348 -0.201695 -0.055097
v 0.093263 -0.287042 -0.057639
v 0.089147 -0.184539 -0.055097
v -0.171573 -0.124654 -0.007871
v -0.273709 -0.198862 -0.064614
v -0.180592 -0.096896 -0.055097
v -0.180592 -0.096896 -0.055097
v -0.273709 -0.198862 -0.064614
v -0.147960 -0.141810 -0.055097
v -0.171573 0.124654 -0.007871
v -0.250257 0.181823 -0.059078
v -0.147960 0.141810 -0.055097
v -0.147960 0.141810 -0.055097
v -0.250257 0.181823 -0.059078
v -0.180592 0.096896 -0.055097
v -0.203056 -0.027758 0.055097
v -0.324165 0.000000 0.061911
v -0.203056 0.027758 0.055097
v -0.089148 0.184539 0.055097
v -0.102565 0.315660 0.063389
v -0.036348 0.201695 0.055097
v 0.072966 0.224569 0.118065
v -0.036348 0.201695 0.055097
v -0.065535 0.201695 0.007871
v -0.072966 0.224569 -0.118065
v -0.089148 0.184539 0.055097
v -0.191030 0.138790 0.118065
v 0.147960 0.141810 0.055097
v 0.255937 0.185950 0.060419
v 0.180592 0.096896 0.055097
v 0.236128 0.000000 0.118065
v 0.180592 -0.096896 0.055097
v 0.147960 -0.141810 0.055097
v 0.072966 -0.224569 0.118065
v 0.171572 -0.124654 0.007871
v 0.191030 -0.138790 -0.118065
v 0.180592 -0.096896 0.055097
v 0.254372 -0.184813 0.060049
v 0.147960 -0.141810 0.055097
v -0.036348 -0.201695 0.055097
v -0.092432 -0.284475 0.057126
v -0.089148 -0.184539 0.055097
v -0.191030 -0.138790 0.118065
v -0.089148 -0.184539 0.055097
v -0.065535 -0.201695 0.007871
v -0.072966 -0.224569 -0.118065
v -0.036348 -0.201695 0.055097
v 0.072966 -0.224569 0.118065
v -0.089148 -0.184539 0.055097
v -0.092432 -0.284475 0.057126
v -0.065535 -0.201695 0.007871
v -0.065535 -0.201695 0.007871
v -0.092432 -0.284475 0.057126
v -0.036348 -0.201695 0.055097
v -0.203056 0.027758 0.055097
v -0.324165 0.000000 0.061911
v -0.212076 0.000000 0.007871
v -0.212076 0.000000 0.007871
v -0.324165 0.000000 0.061911
v -0.203056 -0.027758 0.055097
v -0.036348 0.201695 0.055097
v -0.102565 0.315660 0.063389
v -0.065535 0.201695 0.007871
v -0.065535 0.201695 0.007871
v -0.102565 0.315660 0.063389
v -0.089148 0.184539 0.055097
v 0.171572 0.124654 0.007871
v 0.255937 0.185950 0.060419
v 0.147960 0.141810 0.055097
v 0.180592 0.096896 0.055097
v 0.255937 0.185950 0.060419
v 0.171572 0.124654 0.007871
v 0.147960 -0.141810 0.055097
v 0.254372 -0.184813 0.060049
v 0.171572 -0.124654 0.007871
v 0.171572 -0.124654 0.007871
v 0.254372 -0.184813 0.060049
v 0.180592 -0.096896 0.055097
vn 0.1876 -0.5774 -0.7947
vn 0.6071 -0.0000 -0.7947
vn -0.4911 -0.3568 -0.7947
vn -0.4911 0.3568 -0.7947
vn 0.1876 0.5774 -0.7947
vn 0.9822 -0.0000 -0.1876
vn 0.3035 -0.9342 -0.1876
vn -0.7946 -0.5774 -0.1876
vn -0.7947 -0.5774 -0.1876
vn -0.7947 0.5774 -0.1876
vn -0.7946 0.5774 -0.1876
vn 0.3035 0.9342 -0.1876
vn -0.3035 -0.9342 0.1876
vn -0.9822 -0.0000 0.1876
vn -0.3035 0.9342 0.1876
vn 0.7947 0.5774 0.1876
vn 0.7946 0.5774 0.1876
vn 0.7947 0.5773 0.1876
vn 0.4911 -0.3568 0.7947
vn -0.1876 -0.5774 0.7947
vn -0.6071 -0.0000 0.7947
vn -0.1876 0.5774 0.7947
vn 0.4911 0.3568 0.7947
vn -0.7420 0.4891 0.4586
vn 0.3036 0.9342 -0.1876
vn 0.8877 -0.0405 0.4586
vn -0.0132 -0.0405 -0.9991
vn -0.6980 -0.5511 0.4572
vn 0.3362 -0.8187 0.4655
vn -0.7947 -0.5773 -0.1876
vn 0.8906 0.0245 0.4542
vn 0.2484 0.8551 0.4551
vn 0.2484 -0.8551 0.4551
vn -0.0294 -0.0000 -0.9996
vn -0.7349 -0.5036 0.4542
vn -0.0080 0.0245 -0.9997
vn -0.6747 0.5727 0.4655
vn 0.0568 0.0413 -0.9975
vn 0.3085 0.8341 0.4573
vn 0.0303 -0.0220 -0.9993
vn 0.0562 -0.0000 0.9984
vn 0.0198 -0.0611 0.9979
vn -0.0380 -0.0276 0.9989
vn 0.7946 -0.5774 0.1876
vn 0.7947 -0.5774 0.1876
vn -0.0359 0.0261 0.9990
vn 0.0065 0.0201 0.9998
vn -0.8913 0.0201 -0.4530
vn 0.7329 -0.5076 -0.4529
vn -0.2227 0.8584 -0.4620
vn -0.2227 -0.8584 -0.4620
vn 0.7508 0.4700 -0.4640
vn -0.8837 -0.0611 -0.4640
vn -0.3165 0.8298 -0.4597
vn 0.6913 -0.5574 -0.4597
vn -0.3144 -0.8309 -0.4591
vn 0.6931 0.5558 -0.4591
vt 0.441698 0.279620
vt 0.441698 0.498017
vt 0.245060 0.443419
vt 0.211474 0.178386
vt 0.715408 0.714419
vt 0.930816 0.848159
vt 0.742834 0.930816
vt 0.284592 0.580674
vt 0.069184 0.714414
vt 0.096610 0.498017
vt 0.069184 0.334216
vt 0.500000 0.580674
vt 0.500000 0.848158
vt 0.500000 0.714419
vt 0.715408 0.580674
vt 0.930816 0.580675
vt 0.583988 0.178386
vt 0.759867 0.069184
vt 0.096611 0.930816
vt 0.814212 0.279620
vt 0.814212 0.498017
vt 0.441698 0.334216
vt 0.284592 0.714414
vt 0.715408 0.848159
vt 0.527426 0.930816
vt 0.617574 0.443419
vt 0.312018 0.498017
vt 0.284592 0.848158
vt 0.742835 0.498017
s 1
f 3/1/1 2/2/1 1/3/1
f 6/3/2 5/4/2 4/1/2
f 9/5/3 8/6/3 7/7/3
f 12/8/4 11/9/4 10/10/4
f 15/11/5 14/4/5 13/3/5
f 18/12/6 17/13/6 16/13/6
f 19/12/6 18/12/6 16/13/6
f 22/14/7 21/15/7 20/15/7
f 23/14/7 22/14/7 20/15/7
f 26/16/8 25/5/8 24/5/8
f 27/16/8 26/16/8 24/5/8
f 24/5/8 25/5/8 28/6/9
f 25/5/8 29/6/9 28/6/9
f 32/17/10 31/18/11 30/18/10
f 33/17/10 32/17/10 30/18/10
f 36/19/12 35/9/12 34/9/12
f 37/19/12 36/19/12 34/9/12
f 40/20/13 39/21/13 38/21/13
f 41/20/13 40/20/13 38/21/13
f 44/17/14 43/20/14 42/20/14
f 45/17/14 44/17/14 42/20/14
f 46/18/14 44/17/14 45/17/14
f 47/18/14 46/18/14 45/17/14
f 43/20/14 46/18/14 47/18/14
f 42/20/14 43/20/14 47/18/14
f 50/22/15 49/17/15 48/17/15
f 51/22/15 50/22/15 48/17/15
f 54/12/16 53/23/16 52/23/17
f 55/12/16 54/12/16 52/23/17
f 52/23/17 53/23/16 56/13/16
f 53/23/16 57/13/18 56/13/16
f 57/13/18 54/12/16 55/12/16
f 56/13/16 57/13/18 55/12/16
f 60/24/19 59/25/19 58/14/19
f 63/21/20 62/26/20 61/20/20
f 66/20/21 65/26/21 64/17/21
f 69/17/22 68/26/22 67/22/22
f 72/23/23 71/27/23 70/12/23
f 75/19/24 74/9/24 73/9/24
f 78/13/12 77/23/25 76/23/12
f 79/13/12 78/13/12 76/23/12
f 82/11/12 81/4/12 80/4/12
f 83/11/12 82/11/12 80/4/12
f 86/13/26 85/23/26 84/23/26
f 89/11/27 88/4/27 87/4/27
f 92/17/28 91/18/28 90/18/28
f 95/9/11 94/28/11 93/28/11
f 96/9/11 95/9/11 93/28/11
f 97/8/10 95/9/11 96/9/11
f 98/8/10 97/8/10 96/9/11
f 101/16/29 100/5/29 99/5/29
f 104/18/9 103/20/30 102/20/9
f 105/18/9 104/18/9 102/20/9
f 108/14/31 107/15/31 106/15/31
f 111/5/7 110/29/7 109/29/7
f 112/5/7 111/5/7 109/29/7
f 115/1/7 114/2/7 113/2/7
f 116/1/7 115/1/7 113/2/7
f 119/12/32 118/13/32 117/13/32
f 122/15/6 121/24/6 120/24/6
f 123/15/6 122/15/6 120/24/6
f 126/4/6 125/1/6 124/1/6
f 127/4/6 126/4/6 124/1/6
f 130/15/33 129/24/33 128/24/33
f 133/4/34 132/1/34 131/1/34
f 136/5/35 135/29/35 134/29/35
f 139/1/36 138/2/36 137/2/36
f 142/18/37 141/20/37 140/20/37
f 145/5/38 144/6/38 143/6/38
f 148/9/39 147/28/39 146/28/39
f 151/8/40 150/9/40 149/9/40
f 154/17/41 153/20/41 152/20/41
f 157/22/42 156/17/42 155/17/42
f 160/9/15 159/19/15 158/19/15
f 161/9/15 160/9/15 158/19/15
f 162/28/15 160/9/15 161/9/15
f 163/28/15 162/28/15 161/9/15
f 166/12/43 165/23/43 164/23/43
f 169/14/44 168/24/45 167/24/45
f 170/14/44 169/14/44 167/24/45
f 171/15/44 169/14/44 170/14/44
f 172/15/45 171/15/44 170/14/44
f 168/24/45 171/15/44 172/15/45
f 167/24/45 168/24/45 172/15/45
f 175/14/46 174/24/46 173/24/46
f 178/20/47 177/21/47 176/21/47
f 181/5/13 180/16/13 179/16/13
f 182/5/13 181/5/13 179/16/13
f 183/29/13 181/5/13 182/5/13
f 184/29/13 183/29/13 182/5/13
f 187/5/48 186/16/48 185/16/48
f 190/29/49 189/5/49 188/5/49
f 193/18/50 192/17/50 191/17/50
f 196/20/51 195/18/51 194/18/51
f 199/9/52 198/19/52 197/19/52
f 202/28/53 201/9/53 200/9/53
f 205/23/54 204/13/54 203/13/54
f 208/13/55 207/12/55 206/12/55
f 211/15/56 210/14/56 209/14/56
f 214/24/57 213/15/57 212/15/57
